<svg width="22" height="22" viewBox="0 0 22 22" fill="none" xmlns="http://www.w3.org/2000/svg">
<path d="M20.1446 1.20796L20.1444 1.20793C19.436 1.08544 18.7186 1.02262 17.9996 1.02012C15.5468 1.01815 13.1452 1.72151 11.081 3.04636L11.0006 3.09795L10.9198 3.04693C8.85027 1.73944 6.44893 1.05335 4.00099 1.07012L4.00048 1.07012C3.2815 1.07261 2.56399 1.13543 1.85552 1.25793L1.85545 1.25794C1.65587 1.29235 1.47514 1.39688 1.3458 1.55271C1.21646 1.70855 1.147 1.90544 1.14995 2.10794L1.14998 2.11012H1.14996V14.1101V14.1123L1.14995 14.1123C1.14813 14.2372 1.17385 14.361 1.2253 14.4748C1.27674 14.5886 1.35264 14.6897 1.44759 14.7708C1.54255 14.852 1.65422 14.9112 1.77466 14.9443C1.89508 14.9774 2.02131 14.9836 2.14437 14.9623C2.1444 14.9623 2.14442 14.9623 2.14445 14.9623L2.16996 15.1101C3.60298 14.862 5.07116 14.9032 6.48803 15.2312C7.90489 15.5592 9.24179 16.1675 10.42 17.0201L20.1446 1.20796ZM20.1446 1.20796C20.3357 1.24072 20.5098 1.33782 20.6382 1.48314C20.7658 1.62765 20.8404 1.81121 20.85 2.00368L20.8499 14.0001L20.85 14.0023C20.8518 14.1272 20.8261 14.251 20.7746 14.3648C20.7232 14.4786 20.6473 14.5797 20.5523 14.6608C20.4574 14.742 20.3457 14.8012 20.2253 14.8343C20.1048 14.8674 19.9786 14.8736 19.8555 14.8523L19.8539 14.852C18.3937 14.6163 16.9011 14.676 15.4644 15.0278C14.0305 15.3789 12.6816 16.0137 11.4971 16.8948L11.4194 16.9401H11.35H11.3196L11.2916 16.9519C11.1993 16.9909 11.1002 17.011 11 17.011C10.8998 17.011 10.8006 16.9909 10.7083 16.9519L10.6803 16.9401H10.65H10.5805L10.5019 16.8943L20.1446 1.20796ZM10.5075 20.7883C9.31317 19.9241 7.95804 19.3076 6.52186 18.9751C5.0855 18.6425 3.59711 18.6008 2.14437 18.8523L2.14437 18.8523L2.14167 18.8528C1.92079 18.8952 1.6921 18.8484 1.50569 18.7225C1.31991 18.5971 1.19123 18.4033 1.14761 18.1835C1.12984 18.0737 1.1338 17.9614 1.15928 17.8531C1.18493 17.7441 1.23189 17.6412 1.29746 17.5503C1.36302 17.4595 1.4459 17.3825 1.54132 17.3238C1.63674 17.2651 1.74283 17.2258 1.85347 17.2083L1.85347 17.2083L1.85552 17.2079C2.56399 17.0854 3.2815 17.0226 4.00048 17.0201C6.45321 17.0182 8.85478 17.7215 10.9189 19.0464L11 19.0984L11.081 19.0464C13.1451 17.7215 15.5467 17.0182 17.9994 17.0201C18.7184 17.0226 19.4359 17.0854 20.1444 17.2079L20.1465 17.2083L10.42 20.9101M10.5075 20.7883C10.5076 20.7884 10.5078 20.7885 10.5079 20.7886L10.42 20.9101M10.5075 20.7883C10.5073 20.7882 10.5071 20.788 10.507 20.7879L10.42 20.9101M10.5075 20.7883C10.6513 20.8906 10.8234 20.9455 11 20.9455C11.1765 20.9455 11.3486 20.8905 11.4925 20.7883M10.42 20.9101C10.5893 21.0307 10.7921 21.0955 11 21.0955C11.2079 21.0955 11.4106 21.0307 11.58 20.9101M11.4925 20.7883C11.4923 20.7884 11.4922 20.7885 11.492 20.7886L11.58 20.9101M11.4925 20.7883C11.4926 20.7882 11.4928 20.788 11.493 20.7879L11.58 20.9101M11.4925 20.7883L11.58 20.9101M9.9302 14.4829L10.15 14.5984V14.3501V4.67012V4.58946L10.0827 4.54498C8.27948 3.35321 6.16542 2.71856 4.00405 2.72012C3.66683 2.70151 3.32884 2.70159 2.99163 2.72035L2.84996 2.72824V2.87012V12.8701V13.0201H2.99996H3.99996C6.06603 13.02 8.10117 13.522 9.9302 14.4829ZM19 13.0601H19.15V12.9101V2.87012V2.72824L19.0083 2.72035C18.6711 2.70159 18.3331 2.70151 17.9959 2.72012C15.8345 2.71856 13.7204 3.35321 11.9173 4.54498L11.85 4.58946V4.67012V14.3901V14.6384L12.0697 14.5229C13.8988 13.562 15.9339 13.06 18 13.0601H19ZM20.8523 18.1836C20.8522 18.1843 20.8521 18.185 20.852 18.1858L21 18.2101L20.8528 18.1813C20.8526 18.1821 20.8525 18.1828 20.8523 18.1836Z" fill="#A0A7AE" stroke="white" stroke-width="0.3"/>
</svg>
